<?xml version="1.0" standalone="no"?><!DOCTYPE svg PUBLIC "-//W3C//DTD SVG 1.1//EN" "http://www.w3.org/Graphics/SVG/1.1/DTD/svg11.dtd"><svg xmlns:xlink="http://www.w3.org/1999/xlink" xmlns="http://www.w3.org/2000/svg" version="1.1" width="128" height="128" viewBox="0 0 128 128"><defs><style type="text/css"><![CDATA[
@font-face {
  font-family: "ifont";
  src: url("//at.alicdn.com/t/font_1442373896_4754455.eot?#iefix") format("embedded-opentype"), url("//at.alicdn.com/t/font_1442373896_4754455.woff") format("woff"), url("//at.alicdn.com/t/font_1442373896_4754455.ttf") format("truetype"), url("//at.alicdn.com/t/font_1442373896_4754455.svg#ifont") format("svg");
}

]]></style></defs><g class="transform-group"><g transform="scale(0.125, 0.125)"><path d="M45.948692 513.723924 111.589717 890.368819C111.589717 938.862482 269.188543 978.30964 269.188543 978.30964L269.188543 418.720685 133.075528 418.720685C86.66071 418.720685 45.948692 463.111164 45.948692 513.723924ZM890.245553 400.821622 627.181859 400.821622C644.963905 380.46325 656.041034 344.494791 656.670142 333.111655L660.58583 316.518906C675.511837 256.349564 672.980559 193.035325 653.220254 133.282301L646.094074 113.304616C634.545578 78.326322 600.954173 53.894774 564.425075 53.894774L561.620998 53.894774C513.55825 53.894774 471.39687 94.778422 471.39687 141.398645L471.39687 169.175747C471.39687 296.139905 423.166358 395.972069 308.512794 420.028555L308.512794 985.177805 774.534199 985.177805C813.548182 985.177805 848.156554 958.000805 858.637974 919.16874L973.421442 514.709239C981.061671 487.927928 975.516617 458.434917 958.632763 435.81492 942.018001 413.581236 917.094928 400.821622 890.245553 400.821622Z" fill="#eb4f38"></path></g></g></svg>